<svg width="155" height="154" viewBox="0 0 155 154" fill="none" xmlns="http://www.w3.org/2000/svg">
<path d="M7.0018 22.9827L66.4553 27.1363L52.2279 41.3669L84.0683 73.2073L99.3069 74.7657L126.603 102.062L97.5405 113.518L86.0844 142.584L58.788 115.288L57.2296 100.049L25.386 68.2088L11.1587 82.433L7.0018 22.9827Z" stroke="black" stroke-width="5.37607" stroke-linejoin="round"/>
<path d="M115.611 106.392L97.5308 113.518L86.0747 142.581L107.275 127.538L115.608 106.392H115.611Z" stroke="black" stroke-width="5.37607" stroke-linejoin="round"/>
<path d="M126.6 102.068L99.3036 74.772L120.501 59.7255L147.797 87.0218L126.6 102.068Z" stroke="black" stroke-width="5.37607" stroke-linejoin="round"/>
<path d="M99.3069 74.7657L84.0715 73.2073L105.272 58.1639L120.504 59.7224L99.3069 74.7625V74.7657Z" stroke="black" stroke-width="5.37607" stroke-linejoin="round"/>
<path d="M66.4553 27.1364L7.0018 22.9859L28.2021 7.93616L87.6524 12.0962L66.4553 27.1364Z" stroke="black" stroke-width="5.37607" stroke-linejoin="round"/>
<path d="M52.2343 41.3669L66.4617 27.1395L71.0185 23.9075L73.4313 26.3235L105.275 58.1671L84.0779 73.2105L52.2343 41.3701V41.3669Z" stroke="black" stroke-width="5.37607" stroke-linejoin="round"/>
</svg>
