<svg width="154" height="155" viewBox="0 0 154 155" fill="none" xmlns="http://www.w3.org/2000/svg">
<path d="M6.60361 34.0924H46.8313V67.616H87.059V101.14H127.287V141.367H6.60361V34.0924Z" stroke="black" stroke-width="5.37607" stroke-linejoin="round"/>
<path d="M6.60361 34.0924H46.8313V67.616H87.059V101.14H127.287V141.367H6.60361V34.0924Z" stroke="black" stroke-width="5.37607" stroke-linejoin="round"/>
<path d="M26.7191 13.8425H66.9435L46.8313 34.0956H6.60361L26.7191 13.8425Z" stroke="black" stroke-width="5.37607" stroke-linejoin="round"/>
<path d="M66.9565 13.8425V47.3661L46.841 67.6192V34.0956L66.9565 13.8425Z" stroke="black" stroke-width="5.37607" stroke-linejoin="round"/>
<path d="M66.9565 47.3661H107.181L87.0687 67.6159H46.8442L66.9565 47.3661Z" stroke="black" stroke-width="5.37607" stroke-linejoin="round"/>
<path d="M107.181 47.3661V80.8897L87.0687 101.14V67.6159L107.181 47.3661Z" stroke="black" stroke-width="5.37607" stroke-linejoin="round"/>
<path d="M107.181 80.8896H147.409L127.296 101.143H87.0655L107.181 80.8896Z" stroke="black" stroke-width="5.37607" stroke-linejoin="round"/>
<path d="M147.405 80.8896V121.117L127.293 141.374V101.139L147.405 80.8896Z" stroke="black" stroke-width="5.37607" stroke-linejoin="round"/>
</svg>
