<svg width="154" height="154" viewBox="0 0 154 154" fill="none" xmlns="http://www.w3.org/2000/svg">
<path d="M45.2881 22.9784C41.9793 42.3578 48.7122 62.9309 64.8052 76.5502C80.8982 90.1696 102.303 93.4016 120.867 86.9312C119.142 97.0377 114.73 106.494 108.095 114.311C87.6022 138.525 51.3586 141.546 27.1439 121.056C2.92923 100.563 -0.0884082 64.3197 20.4014 40.105C27.0113 32.268 35.607 26.3526 45.2881 22.9784Z" stroke="black" stroke-width="5.37607" stroke-linejoin="round"/>
<path d="M66.2323 19.3591C62.7443 38.7066 69.2819 59.3436 85.2501 73.1134C95.112 81.6436 107.592 86.5481 120.623 87.0143C102.114 93.3728 80.8245 90.1088 64.8019 76.5502C48.7057 62.9309 41.976 42.3578 45.2849 22.9784L66.2355 19.3623L66.2323 19.3591Z" stroke="black" stroke-width="5.37607" stroke-linejoin="round"/>
<path d="M76.7412 133.271L95.7943 130.119C108.402 127.652 119.811 121.013 128.185 111.271C134.893 103.518 139.392 94.1046 141.212 84.016C134.72 86.2112 127.67 87.216 120.851 87.0176C119.115 97.091 114.71 106.515 108.095 114.308C100.007 123.897 88.9896 130.56 76.7412 133.271Z" stroke="black" stroke-width="5.37607" stroke-linejoin="round"/>
</svg>
