<svg width="154" height="155" viewBox="0 0 154 155" fill="none" xmlns="http://www.w3.org/2000/svg">
<path d="M117.054 113.278C93.3003 127.317 62.2663 121.707 45.0725 99.2523C26.5058 75.0056 31.1043 40.298 55.3542 21.7313C79.6073 3.16472 114.312 7.76958 132.882 32.0163C151.733 56.6374 145.624 98.2123 147.195 127.409L135.016 136.734L117.057 113.278H117.054Z" stroke="black" stroke-width="5.37607" stroke-linecap="square" stroke-linejoin="round"/>
<path d="M89.777 121.035C66.0263 135.073 34.9923 129.467 17.7953 107.012C-0.768106 82.7657 3.83355 48.058 28.0802 29.4914C33.0642 25.6657 38.6647 22.7188 44.6404 20.7777L71.4344 13.184C65.6439 15.1253 60.2155 18.0136 55.3702 21.7313C31.1203 40.2979 26.5186 75.0056 45.0852 99.2523C56.1382 113.688 72.9128 121.163 89.793 120.929L89.777 121.035Z" stroke="black" stroke-width="5.37607" stroke-linecap="square" stroke-linejoin="round"/>
<path d="M117.057 113.278L135.019 136.734L107.732 144.491L89.777 120.929C99.3837 120.805 108.79 118.167 117.061 113.278H117.057Z" stroke="black" stroke-width="5.37607" stroke-linecap="square" stroke-linejoin="round"/>
</svg>
