<svg width="24" height="22" viewBox="0 0 24 22" fill="none" xmlns="http://www.w3.org/2000/svg">
<path fill-rule="evenodd" clip-rule="evenodd" d="M16.12 7.84C15.6216 7.10013 14.946 6.49664 14.1548 6.08446C13.3637 5.67228 12.482 5.46449 11.59 5.48C10.6883 5.46642 9.79119 5.61198 8.94 5.90999C4.87 7.46999 3.32001 14.65 9.00001 16C11.67 16.66 14.37 16.74 16 14.54C16.6633 13.5535 17.0276 12.3963 17.0488 11.2077C17.0701 10.0191 16.7476 8.84964 16.12 7.84ZM15.34 14C13.89 15.79 11.55 15.55 9.34001 15C8.93042 14.9107 8.53388 14.7696 8.16001 14.58C5.00001 12.94 6.28 7.89 9.23 6.63C9.84 6.37 13.07 5.2 15.31 7.99999C15.7109 8.47165 15.9891 9.03499 16.12 9.64C16.3135 10.3799 16.344 11.1529 16.2093 11.9057C16.0746 12.6585 15.778 13.3731 15.34 14Z" fill="black"/>
<path fill-rule="evenodd" clip-rule="evenodd" d="M11.22 3.99998C11.3058 3.99738 11.3871 3.96147 11.4469 3.89986C11.5066 3.83825 11.54 3.7558 11.54 3.66998C11.6231 3.24389 11.6799 2.81307 11.71 2.37998C11.6814 1.69271 11.5325 1.01578 11.27 0.379983C11.2299 0.32359 11.1721 0.282236 11.1057 0.262504C11.0394 0.242773 10.9684 0.245799 10.904 0.271101C10.8396 0.296403 10.7855 0.342526 10.7503 0.402126C10.7152 0.461725 10.701 0.531374 10.71 0.599983C10.69 0.889983 10.48 3.99998 11.22 3.99998Z" fill="black"/>
<path fill-rule="evenodd" clip-rule="evenodd" d="M3.30999 11.18C2.86999 11.11 2.47999 10.97 2.05999 10.9C1.63999 10.83 -7.19936e-06 10.94 -7.19936e-06 11.26C-0.0900072 11.9 2.10999 12.03 3.30999 11.83C3.38641 11.8165 3.45565 11.7765 3.50553 11.7171C3.55542 11.6577 3.58277 11.5826 3.58277 11.505C3.58277 11.4274 3.55542 11.3522 3.50553 11.2928C3.45565 11.2334 3.38641 11.1934 3.30999 11.18Z" fill="black"/>
<path fill-rule="evenodd" clip-rule="evenodd" d="M21.94 10.93C21.52 11.01 21.13 11.15 20.7 11.22C20.6236 11.2334 20.5544 11.2734 20.5045 11.3328C20.4546 11.3923 20.4272 11.4674 20.4272 11.545C20.4272 11.6226 20.4546 11.6977 20.5045 11.7571C20.5544 11.8166 20.6236 11.8565 20.7 11.87C21.1295 11.9458 21.564 11.9893 22 12C22.55 12 24 11.58 24 11.26C24 10.94 22.26 10.88 21.94 10.93Z" fill="black"/>
<path fill-rule="evenodd" clip-rule="evenodd" d="M12.33 18.53C12.33 18.42 12.16 18.38 11.95 18.44C11.58 18.55 11.14 20.62 11.86 21.55C11.879 21.5881 11.9054 21.622 11.9376 21.6499C11.9697 21.6778 12.0071 21.6991 12.0475 21.7126C12.0879 21.726 12.1305 21.7314 12.173 21.7284C12.2155 21.7254 12.2569 21.714 12.295 21.695C12.3331 21.6759 12.367 21.6496 12.3949 21.6174C12.4228 21.5852 12.4441 21.5479 12.4576 21.5075C12.4711 21.4671 12.4764 21.4245 12.4734 21.382C12.4704 21.3395 12.459 21.2981 12.44 21.26C12.5499 20.35 12.5128 19.4282 12.33 18.53Z" fill="black"/>
<path fill-rule="evenodd" clip-rule="evenodd" d="M6.67002 17.05C6.28002 17.41 4.54002 18.48 4.32002 19.28C4.27002 19.46 4.26002 19.59 4.32002 19.69C4.37409 19.753 4.44828 19.7954 4.53002 19.81C5.64569 19.3561 6.5661 18.5242 7.13002 17.46C7.16066 17.3973 7.16995 17.3262 7.15648 17.2578C7.14301 17.1893 7.10752 17.1271 7.05541 17.0806C7.00331 17.0342 6.93745 17.0061 6.86787 17.0005C6.79829 16.995 6.72881 17.0124 6.67002 17.05Z" fill="black"/>
<path fill-rule="evenodd" clip-rule="evenodd" d="M17.37 17.11C17.3108 17.0574 17.2346 17.0279 17.1554 17.0268C17.0762 17.0257 16.9993 17.0531 16.9386 17.1041C16.878 17.155 16.8377 17.2261 16.8251 17.3043C16.8125 17.3825 16.8284 17.4626 16.87 17.53C17.093 17.9209 17.3579 18.2864 17.66 18.62C18.2053 19.1263 18.8261 19.5447 19.5 19.86C19.5809 19.8441 19.6526 19.7975 19.7 19.73C20.33 19.15 17.52 17.25 17.37 17.11Z" fill="black"/>
<path fill-rule="evenodd" clip-rule="evenodd" d="M5.73999 6.90996C5.79966 6.97096 5.88112 7.00576 5.96645 7.00669C6.05178 7.00763 6.13399 6.97463 6.19499 6.91496C6.25599 6.85529 6.29079 6.77383 6.29172 6.6885C6.29266 6.60317 6.25966 6.52096 6.19999 6.45996C5.53583 5.47951 4.59639 4.71751 3.49999 4.26996C3.12999 4.10996 2.93999 4.31996 2.95999 4.47996C2.95999 4.82996 4.04999 5.83996 4.49999 6.12996C4.94999 6.41996 5.33999 6.61996 5.73999 6.90996Z" fill="black"/>
<path fill-rule="evenodd" clip-rule="evenodd" d="M21 4.51995C21 4.36995 20.84 4.13995 20.46 4.31995C19.3665 4.76831 18.4328 5.53475 17.78 6.51995C17.7203 6.58095 17.6873 6.66316 17.6883 6.74849C17.6892 6.83382 17.724 6.91528 17.785 6.97495C17.846 7.03463 17.9282 7.06762 18.0135 7.06669C18.0989 7.06575 18.1803 7.03095 18.24 6.96995C18.43 6.81995 21 5.23995 21 4.51995Z" fill="black"/>
</svg>
